<?xml version="1.0" encoding="iso-8859-1"?>
<!-- Generator: Adobe Illustrator 19.0.0, SVG Export Plug-In . SVG Version: 6.00 Build 0)  -->
<svg version="1.1" id="Capa_1" xmlns="http://www.w3.org/2000/svg" xmlns:xlink="http://www.w3.org/1999/xlink" x="0px" y="0px"
	 viewBox="0 0 512.002 512.002" style="enable-background:new 0 0 512.002 512.002;" xml:space="preserve">
<g>
	<path style="fill:#F0F0FB;" d="M256.001,265.875v-63v-82.713c0-24.389-20.369-44.16-45.495-44.16
		c-26.749,0-47.616,22.232-45.319,48.016c-36.26,0.84-60.979,35.484-49.975,68.443c-22.959,8.76-39.211,30.469-39.211,55.861
		c0,23.641,14.089,44.086,34.56,53.863c-35.826,38.283,2.172,99.965,54.652,85.508c-2.485,25.877,18.421,48.309,45.293,48.309
		c25.126,0,45.495-19.771,45.495-44.16v-71.529V265.875z"/>
	<path style="fill:#BFBFCF;" d="M301.496,76.002c-25.127,0-45.495,19.771-45.495,44.16v145.713v54.438v71.529
		c0,24.389,20.368,44.16,45.495,44.16c26.871,0,47.779-22.432,45.293-48.309c52.48,14.457,90.478-47.225,54.652-85.508
		c8.895-4.248,16.584-10.512,22.438-18.176c-11.055,8.699-25,13.889-40.156,13.889c-35.893,0-65-29.107-65-65s29.107-65,65-65
		c5.256,0,10.365,0.629,15.26,1.807c-3.275-24.451-24.314-45.043-52.168-45.687C349.111,98.234,328.246,76.002,301.496,76.002z"/>
	<path style="fill:#FD4A4A;" d="M383.723,297.898c35.801,0,65-29.201,65-65.002s-29.199-64.998-65-64.998s-65,29.197-65,64.998
		S347.922,297.898,383.723,297.898z"/>
</g>
<path d="M153.52,276.044c-0.047,0.01-0.151,0.032-0.22,0.047c-5.369,1.138-8.822,6.396-7.723,11.782
	c0.966,4.736,5.134,8.002,9.788,8.002c0.663,0,1.335-0.066,2.01-0.204c0.047-0.01,0.152-0.032,0.22-0.047
	c5.368-1.138,8.822-6.395,7.722-11.782C164.213,278.431,158.927,274.935,153.52,276.044z"/>
<path d="M256.001,40c5.522,0,10-4.478,10-10V10c0-5.523-4.478-10-10-10c-5.523,0-10,4.477-10,10v20
	C246.001,35.523,250.478,40,256.001,40z"/>
<path d="M134.34,65.279c1.852,3.208,5.213,5.002,8.669,5.002c1.696,0,3.416-0.433,4.991-1.342c4.783-2.762,6.422-8.877,3.66-13.66
	l-10-17.32c-2.762-4.782-8.878-6.423-13.66-3.66c-4.783,2.762-6.422,8.877-3.66,13.66L134.34,65.279z"/>
<path d="M37.958,141.662l17.321,10c1.575,0.909,3.294,1.342,4.991,1.342c3.456,0,6.817-1.794,8.669-5.002
	c2.762-4.783,1.123-10.899-3.66-13.66l-17.321-10c-4.782-2.76-10.899-1.123-13.66,3.66
	C31.536,132.785,33.175,138.901,37.958,141.662z"/>
<path d="M40,256.002c0-5.522-4.477-10-10-10H10c-5.523,0-10,4.478-10,10c0,5.523,4.477,10,10,10h20
	C35.523,266.002,40,261.524,40,256.002z"/>
<path d="M55.279,360.342l-17.321,10c-4.783,2.761-6.422,8.877-3.66,13.66c1.852,3.208,5.213,5.002,8.669,5.002
	c1.696,0,3.416-0.433,4.991-1.342l17.321-10c4.783-2.761,6.422-8.877,3.66-13.66C66.177,359.219,60.061,357.58,55.279,360.342z"/>
<path d="M148,443.064c-4.781-2.76-10.898-1.123-13.66,3.66l-10,17.32c-2.762,4.783-1.123,10.898,3.66,13.66
	c1.575,0.909,3.294,1.342,4.991,1.342c3.456,0,6.817-1.794,8.669-5.002l10-17.32C154.422,451.941,152.784,445.826,148,443.064z"/>
<path d="M256.001,472.002c-5.523,0-10,4.478-10,10v20c0,5.523,4.477,10,10,10c5.522,0,10-4.477,10-10v-20
	C266.001,476.48,261.523,472.002,256.001,472.002z"/>
<path d="M377.662,446.725c-2.761-4.781-8.877-6.422-13.66-3.66s-6.422,8.877-3.66,13.66l10,17.32
	c1.853,3.208,5.213,5.002,8.67,5.002c1.696,0,3.416-0.433,4.99-1.342c4.783-2.762,6.422-8.877,3.66-13.66L377.662,446.725z"/>
<path d="M474.045,370.342l-17.32-10c-4.785-2.761-10.9-1.122-13.66,3.66c-2.762,4.783-1.123,10.898,3.66,13.66l17.32,10
	c1.575,0.909,3.294,1.342,4.99,1.342c3.456,0,6.818-1.794,8.67-5.002C480.467,379.219,478.828,373.104,474.045,370.342z"/>
<path d="M502.002,246.002h-20c-5.522,0-10,4.478-10,10c0,5.523,4.478,10,10,10h20c5.522,0,10-4.477,10-10
	C512.002,250.48,507.524,246.002,502.002,246.002z"/>
<path d="M451.734,153.004c1.696,0,3.416-0.433,4.99-1.342l17.32-10c4.783-2.762,6.422-8.877,3.66-13.66
	c-2.762-4.781-8.876-6.422-13.66-3.66l-17.32,10c-4.783,2.762-6.422,8.877-3.66,13.66
	C444.917,151.21,448.277,153.004,451.734,153.004z"/>
<path d="M364.002,68.939c1.575,0.909,3.294,1.342,4.99,1.342c3.456,0,6.818-1.794,8.67-5.002l10-17.32
	c2.762-4.783,1.123-10.899-3.66-13.66c-4.784-2.762-10.899-1.122-13.66,3.66l-10,17.32C357.58,60.063,359.219,66.178,364.002,68.939
	z"/>
<path d="M458.723,232.897c0-32.99-21.421-61.053-51.076-71.063c-5.975-24.211-26.132-42.55-50.897-46.863
	c-1.092-11.419-5.86-22.136-13.875-30.896c-10.508-11.485-25.589-18.072-41.378-18.072c-18.811,0-35.454,9.189-45.495,23.201
	c-10.041-14.012-26.685-23.201-45.495-23.201c-15.789,0-30.871,6.587-41.379,18.072c-8.009,8.755-12.776,19.465-13.873,30.874
	c-16.776,2.856-31.523,12.063-41.402,26.115c-9.566,13.608-13.173,29.874-10.368,45.744c-23.031,12.143-37.483,35.443-37.483,61.515
	c0,22.885,11.137,43.724,29.716,56.744c-10.689,16.858-12.298,37.149-4.015,56.246c10.154,23.408,32.925,38.534,58.011,38.534
	c1.953,0,3.917-0.09,5.887-0.269c1.552,10.394,6.173,20.256,13.4,28.211c10.516,11.574,25.645,18.213,41.506,18.213
	c18.811,0,35.454-9.189,45.495-23.201c10.041,14.012,26.684,23.201,45.495,23.201c15.862,0,30.99-6.639,41.507-18.214
	c7.228-7.955,11.849-17.819,13.399-28.213c24.264,2.178,46.92-9.041,59.911-30.536c13.216-21.865,12.068-47.573-2.444-67.488
	C440.252,289.92,458.723,263.532,458.723,232.897z M246.001,391.842c0,18.836-15.923,34.16-35.495,34.16
	c-10.236,0-19.969-4.251-26.703-11.662c-5.024-5.529-7.986-12.264-8.642-19.413c18.03-7.159,22.688-19.381,26.184-28.582
	c2.936-7.729,4.411-11.608,12.78-13.852c5.334-1.43,8.5-6.913,7.071-12.248c-1.43-5.334-6.915-8.501-12.247-7.07
	c-18.254,4.892-22.904,17.13-26.299,26.066c-3.42,9.002-5.68,14.949-20.024,18.793c-0.014,0.004-0.026,0.009-0.041,0.013
	c-0.009,0.003-0.018,0.004-0.027,0.006c-4.321,1.19-8.643,1.794-12.844,1.794c-17.113,0-32.682-10.399-39.663-26.493
	c-6.679-15.398-3.758-31.971,7.813-44.335c2.178-2.328,3.116-5.555,2.525-8.688c-0.591-3.132-2.64-5.795-5.517-7.169
	c-17.808-8.506-28.87-25.686-28.87-44.84c0-20.662,12.865-38.922,32.776-46.519c5.006-1.91,7.617-7.427,5.92-12.51
	c-4.155-12.443-2.144-25.831,5.517-36.729c8.037-11.434,20.831-18.188,35.113-18.546c17.016,0.037,20.771,6.827,25.96,16.217
	c4.726,8.553,11.197,20.266,28.599,20.266c5.523,0,10-4.477,10-10c0-5.522-4.477-10-10-10c-5.153,0-6.502-1.629-11.093-9.938
	c-5.084-9.202-12.437-22.493-33.34-25.783c1.036-6.333,3.907-12.259,8.432-17.206c6.729-7.354,16.432-11.572,26.623-11.572
	c19.572,0,35.495,15.324,35.495,34.16v135.257c-23.48-2.283-29.348-13.017-36.538-26.215c-7.037-12.916-15.794-28.99-42.114-31.773
	c-5.488-0.597-10.416,3.399-10.997,8.893c-0.581,5.492,3.401,10.415,8.893,10.996c15.882,1.68,20.168,9.546,26.655,21.453
	c2.348,4.31,4.853,8.894,8.041,13.316c-5.269,5.354-13.217,10.901-22.235,15.371c-4.948,2.453-6.971,8.453-4.518,13.401
	c1.746,3.522,5.287,5.561,8.967,5.561c1.492,0,3.007-0.335,4.434-1.042c11.206-5.555,20.837-12.351,27.754-19.435
	c7.566,4.828,17.651,8.383,31.658,9.525v116.372H246.001z M394.14,309.019c15.716,16.793,12.917,36.672,5.057,49.675
	c-7.903,13.075-25.676,25.985-49.751,19.359c-0.01-0.003-0.02-0.004-0.028-0.006c-0.014-0.004-0.025-0.01-0.039-0.013
	c-14.346-3.844-16.604-9.791-20.025-18.793c-3.395-8.936-8.045-21.175-26.3-26.066c-5.33-1.433-10.817,1.736-12.247,7.071
	c-1.43,5.334,1.736,10.817,7.071,12.247c8.369,2.243,9.843,6.122,12.779,13.852c3.497,9.201,8.154,21.423,26.186,28.583
	c-0.656,7.148-3.618,13.881-8.642,19.411c-6.734,7.412-16.467,11.663-26.704,11.663c-19.572,0-35.494-15.324-35.494-34.16v-71.559
	c0.011-18,9.484-26.953,18.352-29.33c11.003-2.949,22.533,2.784,29.361,14.609c2.762,4.782,8.878,6.424,13.66,3.66
	c4.783-2.762,6.422-8.877,3.66-13.66c-11.311-19.593-32.152-29.205-51.858-23.928c-4.83,1.295-9.245,3.384-13.175,6.133V120.162
	c0-18.836,15.922-34.16,35.494-34.16c10.19,0,19.894,4.218,26.621,11.572c4.525,4.947,7.396,10.873,8.432,17.206
	c-20.901,3.291-28.254,16.581-33.338,25.783c-4.592,8.31-5.94,9.938-11.094,9.938c-5.522,0-10,4.478-10,10c0,5.523,4.478,10,10,10
	c17.401,0,23.873-11.714,28.599-20.267c5.189-9.391,8.944-16.181,25.97-16.216c16.699,0.424,31.304,9.941,38.326,23.912
	c-0.431-0.008-0.857-0.033-1.289-0.033c-41.355,0-75,33.644-75,74.998c0,41.356,33.645,75.002,75,75.002
	c3.096,0,6.143-0.211,9.141-0.577C393.222,307.919,393.645,308.489,394.14,309.019z M383.723,287.898c-30.327,0-55-24.674-55-55.002
	c0-30.326,24.673-54.998,55-54.998s55,24.672,55,54.998C438.723,263.225,414.05,287.898,383.723,287.898z"/>
<path d="M413.893,205.689c-3.698-4.102-10.022-4.428-14.123-0.729l-16.047,14.472l-16.047-14.472
	c-4.1-3.698-10.425-3.375-14.123,0.729c-3.699,4.102-3.373,10.425,0.728,14.123l14.51,13.086l-14.51,13.086
	c-4.102,3.698-4.428,10.021-0.728,14.123c1.974,2.19,4.696,3.303,7.429,3.303c2.387,0,4.782-0.85,6.694-2.574l16.047-14.472
	l16.047,14.472c1.912,1.725,4.307,2.574,6.694,2.574c2.732,0,5.455-1.113,7.429-3.303c3.699-4.102,3.373-10.425-0.728-14.123
	l-14.51-13.086l14.51-13.086C417.266,216.114,417.592,209.791,413.893,205.689z"/>
<g>
</g>
<g>
</g>
<g>
</g>
<g>
</g>
<g>
</g>
<g>
</g>
<g>
</g>
<g>
</g>
<g>
</g>
<g>
</g>
<g>
</g>
<g>
</g>
<g>
</g>
<g>
</g>
<g>
</g>
</svg>
