<?xml version="1.0" encoding="iso-8859-1"?>
<!-- Generator: Adobe Illustrator 19.0.0, SVG Export Plug-In . SVG Version: 6.00 Build 0)  -->
<svg version="1.1" id="Layer_1" xmlns="http://www.w3.org/2000/svg" xmlns:xlink="http://www.w3.org/1999/xlink" x="0px" y="0px"
	 viewBox="0 0 495 495" style="enable-background:new 0 0 495 495;" xml:space="preserve">
<g>
	<path style="fill:#FFA733;" d="M247.5,0v270.486c34.328,0,62.257,27.929,62.257,62.257S281.828,395,247.5,395v100
		C384.19,495,495,384.19,495,247.5S384.19,0,247.5,0z M323.514,241.486c-22.056,0-40-17.944-40-40s17.944-40,40-40s40,17.944,40,40
		S345.569,241.486,323.514,241.486z"/>
	<path style="fill:#FFCD00;" d="M185.243,332.743c0-34.328,27.928-62.257,62.257-62.257V0C110.81,0,0,110.81,0,247.5
		S110.81,495,247.5,495V395C213.171,395,185.243,367.071,185.243,332.743z M131.486,201.486c0-22.056,17.944-40,40-40
		s40,17.944,40,40s-17.944,40-40,40S131.486,223.542,131.486,201.486z"/>
	<path style="fill:#554431;" d="M323.514,161.486c-22.056,0-40,17.944-40,40s17.944,40,40,40s40-17.944,40-40
		S345.569,161.486,323.514,161.486z"/>
	<path style="fill:#6A563D;" d="M211.486,201.486c0-22.056-17.944-40-40-40s-40,17.944-40,40s17.944,40,40,40
		S211.486,223.542,211.486,201.486z"/>
	<path style="fill:#FF5023;" d="M309.757,332.743c0-34.328-27.929-62.257-62.257-62.257V395
		C281.828,395,309.757,367.071,309.757,332.743z"/>
	<path style="fill:#FF7956;" d="M185.243,332.743c0,34.328,27.928,62.257,62.257,62.257V270.486
		C213.171,270.486,185.243,298.415,185.243,332.743z"/>
</g>
<g>
</g>
<g>
</g>
<g>
</g>
<g>
</g>
<g>
</g>
<g>
</g>
<g>
</g>
<g>
</g>
<g>
</g>
<g>
</g>
<g>
</g>
<g>
</g>
<g>
</g>
<g>
</g>
<g>
</g>
</svg>
